<?xml version="1.0" ?><svg id="Layer_1" style="enable-background:new 0 0 512 512;" version="1.1" viewBox="0 0 512 512" xml:space="preserve" xmlns="http://www.w3.org/2000/svg" xmlns:xlink="http://www.w3.org/1999/xlink"><style type="text/css">
	.st0{fill:#232020;}
</style><g><path class="st0" d="M435.6,363.5V130.2c0-16.2-13.2-29.4-29.4-29.4H105.8c-16.2,0-29.4,13.2-29.4,29.4v233.3H21v18.4   c0,16.2,13.2,29.4,29.4,29.4h411.1c16.2,0,29.4-13.2,29.4-29.4v-18.4H435.6z M90.4,130.2c0-8.5,6.9-15.4,15.4-15.4h300.4   c8.5,0,15.4,6.9,15.4,15.4v233.3h-13V140.6c0-7.6-6.2-13.8-13.8-13.8H117.2c-7.6,0-13.8,6.2-13.8,13.8v222.8h-13V130.2z    M196.8,377.5h116.5v2.2c0,2.8-2.3,5.1-5.1,5.1H201.9c-2.8,0-5.1-2.3-5.1-5.1V377.5z M401.7,363.5H110.3V140.6   c0-3.8,3.1-6.8,6.8-6.8h277.6c3.8,0,6.8,3.1,6.8,6.8V363.5z M477,381.8c0,8.5-6.9,15.4-15.4,15.4H50.5c-8.5,0-15.4-6.9-15.4-15.4   v-4.4h41.4h113.4v2.2c0,6.7,5.4,12.1,12.1,12.1h106.3c6.7,0,12.1-5.4,12.1-12.1v-2.2h115.3H477V381.8z"/><path class="st0" d="M330.4,250.4c0-12.2-2.9-23.7-8.1-33.8c-0.1-0.3-0.3-0.6-0.4-0.9c-12.6-24.1-37.8-40.6-66.8-40.6   c-29,0-54.2,16.5-66.8,40.6c-0.2,0.3-0.3,0.6-0.4,0.9c-5.1,10.2-8.1,21.7-8.1,33.8s2.9,23.7,8.1,33.8c0.1,0.3,0.3,0.6,0.4,0.9   c12.6,24.1,37.8,40.6,66.8,40.6s54.2-16.5,66.8-40.6c0.2-0.3,0.3-0.6,0.4-0.9C327.5,274,330.4,262.5,330.4,250.4z M186.8,253.9   h16.8c0.3,8.9,1.6,17.6,3.9,25.7h-14.3C189.6,271.7,187.3,263,186.8,253.9z M193.3,221.2h14.3c-2.3,8.1-3.6,16.7-3.9,25.7h-16.8   C187.3,237.7,189.6,229.1,193.3,221.2z M323.3,246.9h-16.8c-0.3-8.9-1.6-17.6-3.9-25.7h14.3C320.5,229.1,322.8,237.7,323.3,246.9z    M299.5,246.9h-16.7c-0.1-8.7-0.8-17.4-2.1-25.7h14.5C297.7,229.1,299.2,237.7,299.5,246.9z M258.6,317.5v-30.9h13.9   c-1,4.9-2.2,9.4-3.6,13.5C265.9,308.9,262.2,315,258.6,317.5z M241.2,300c-1.4-4.1-2.6-8.6-3.6-13.5h13.9v30.9   C247.9,315,244.2,308.9,241.2,300z M251.6,183.3v30.9h-13.9c1-4.9,2.2-9.4,3.6-13.5C244.2,191.9,247.9,185.7,251.6,183.3z    M268.9,200.7c1.4,4.1,2.6,8.6,3.6,13.5h-13.9v-30.9C262.2,185.7,265.9,191.9,268.9,200.7z M251.6,221.2v25.7h-17.2   c0.1-9,0.9-17.7,2.1-25.7H251.6z M251.6,253.9v25.7h-15.2c-1.2-8-1.9-16.7-2.1-25.7H251.6z M258.6,279.5v-25.7h17.2   c-0.1,9-0.9,17.7-2.1,25.7H258.6z M258.6,246.9v-25.7h15.2c1.2,8,1.9,16.7,2.1,25.7H258.6z M279.6,214.2   c-2.2-11.2-5.3-21.1-9.5-28.2c9.5,5.2,17.5,15.2,22.7,28.2H279.6z M240.1,186c-4.2,7-7.4,16.9-9.5,28.2h-13.2   C222.6,201.3,230.6,191.3,240.1,186z M229.4,221.2c-1.2,8.2-1.9,17-2.1,25.7h-16.7c0.3-9.1,1.8-17.8,4.2-25.7H229.4z M210.6,253.9   h16.7c0.1,8.7,0.8,17.4,2.1,25.7h-14.5C212.4,271.7,211,263,210.6,253.9z M230.6,286.5c2.2,11.2,5.3,21.1,9.5,28.2   c-9.5-5.2-17.5-15.2-22.7-28.2H230.6z M270,314.7c4.2-7,7.4-16.9,9.5-28.2h13.2C287.5,299.5,279.5,309.5,270,314.7z M280.7,279.5   c1.2-8.2,1.9-17,2.1-25.7h16.7c-0.3,9.1-1.8,17.8-4.2,25.7H280.7z M306.5,253.9h16.8c-0.5,9.1-2.7,17.8-6.5,25.7h-14.3   C304.9,271.5,306.2,262.8,306.5,253.9z M313,214.2h-12.7c-2.2-6-5-11.6-8.4-16.6c-2.2-3.2-4.5-6.1-6.9-8.7   C296.5,194.6,306.2,203.4,313,214.2z M225.2,189c-2.5,2.6-4.8,5.4-6.9,8.7c-3.3,5-6.1,10.6-8.4,16.6h-12.7   C203.9,203.4,213.6,194.6,225.2,189z M197.1,286.5h12.7c2.2,6,5,11.6,8.4,16.6c2.2,3.2,4.5,6.1,6.9,8.7   C213.6,306.1,203.9,297.4,197.1,286.5z M285,311.8c2.5-2.6,4.8-5.4,6.9-8.7c3.3-5,6.1-10.6,8.4-16.6H313   C306.2,297.4,296.5,306.1,285,311.8z"/></g></svg>