<?xml version="1.0" ?><!DOCTYPE svg  PUBLIC '-//W3C//DTD SVG 1.1//EN'  'http://www.w3.org/Graphics/SVG/1.1/DTD/svg11.dtd'><svg height="512px" style="enable-background:new 0 0 512 512;" version="1.1" viewBox="0 0 512 512" width="512px" xml:space="preserve" xmlns="http://www.w3.org/2000/svg" xmlns:xlink="http://www.w3.org/1999/xlink"><g id="C_-_80_x2C__Growth_x2C__Business_x2C__career_x2C__growth_x2C__heaven_x2C__ladder_x2C__stairs"><g><path d="M118.455,141.616c1.033-0.792,2.092-1.568,3.184-2.33c-0.154-14.361,4.844-27.971,14.254-38.826    c0.171-0.199,0.354-0.39,0.529-0.586c0.411-0.462,0.817-0.927,1.244-1.378c0.063-0.067,0.13-0.128,0.193-0.194    c0.327-0.342,0.667-0.672,1.003-1.006c0.38-0.38,0.756-0.762,1.146-1.13c0.072-0.067,0.139-0.141,0.212-0.208    c0.336-0.315,0.687-0.608,1.029-0.914c0.323-0.289,0.642-0.582,0.971-0.863c0.545-0.466,1.104-0.913,1.663-1.357    c0.203-0.161,0.401-0.327,0.605-0.485c0.706-0.545,1.425-1.07,2.152-1.582c0.062-0.044,0.122-0.09,0.184-0.133    c4.924-3.435,10.307-6.074,15.964-7.86c0.006-0.002,0.011-0.004,0.017-0.005c0.855-0.27,1.717-0.518,2.585-0.749    c0.142-0.038,0.284-0.079,0.427-0.115c0.726-0.188,1.456-0.357,2.189-0.516c0.297-0.065,0.594-0.132,0.892-0.193    c0.587-0.118,1.178-0.223,1.769-0.323c0.448-0.076,0.895-0.153,1.344-0.219c0.462-0.067,0.925-0.125,1.39-0.181    c0.572-0.07,1.146-0.137,1.721-0.191c0.373-0.034,0.747-0.061,1.122-0.087c0.646-0.047,1.293-0.089,1.942-0.115    c0.353-0.015,0.708-0.02,1.062-0.028c0.416-0.008,0.83-0.032,1.246-0.032c0.298,0,0.598,0.011,0.897,0.015    c0.147,0.003,0.294,0.005,0.441,0.008c0.946,0.021,1.896,0.057,2.845,0.124c0.872-1.417,1.779-2.803,2.712-4.167    c0.066-0.097,0.131-0.196,0.197-0.292c0.328-0.475,0.664-0.942,0.999-1.411c0.199-0.278,0.394-0.558,0.595-0.834    c0.248-0.338,0.501-0.672,0.753-1.006c0.248-0.331,0.491-0.666,0.742-0.993c-9.579-11.363-23.842-18.052-38.828-18.052    c-27.915,0-50.625,22.593-50.625,50.362C101.222,118.46,107.457,132.048,118.455,141.616z"/><path d="M391.834,147.827c-1.924-1.499-2.377-4.224-1.039-6.265c11.229-17.131,10.777-38.309-1.178-55.269    c-11.93-16.923-31.902-24.395-52.12-19.502c-1.519,0.37-3.126-0.047-4.276-1.107c-20.596-18.969-48.396-27.397-76.282-23.111    c-22.626,3.475-42.692,14.945-56.891,32.154c-0.66,0.8-1.306,1.617-1.94,2.444c-0.203,0.265-0.404,0.531-0.605,0.798    c-0.682,0.909-1.356,1.826-2.006,2.763c-0.002,0.003-0.004,0.005-0.006,0.008c-0.689,0.993-1.356,2.005-2.009,3.027    c-0.122,0.191-0.244,0.383-0.365,0.576c-0.629,1-1.243,2.01-1.834,3.034c-0.011,0.021-0.023,0.04-0.035,0.059    c-0.118,0.205-0.25,0.398-0.394,0.58c-1.002,1.266-2.6,1.943-4.236,1.736c-0.956-0.116-1.919-0.2-2.881-0.263    c-0.451-0.029-0.901-0.037-1.352-0.053c-0.492-0.018-0.984-0.04-1.473-0.044c-0.772-0.006-1.543,0.006-2.312,0.037    c-0.079,0.002-0.158,0.002-0.236,0.006c-2.675,0.118-5.324,0.451-7.923,0.991c-0.66,0.139-1.315,0.299-1.968,0.464    c-0.156,0.039-0.313,0.071-0.468,0.111c-0.793,0.209-1.581,0.438-2.362,0.685c-0.011,0.004-0.022,0.006-0.033,0.01    c-2.381,0.756-4.705,1.691-6.947,2.795c-0.014,0.006-0.028,0.013-0.041,0.019c-0.716,0.353-1.422,0.725-2.12,1.112    c-0.054,0.03-0.108,0.06-0.163,0.091c-0.656,0.366-1.303,0.75-1.943,1.146c-0.107,0.067-0.215,0.135-0.322,0.202    c-0.584,0.369-1.162,0.75-1.732,1.143c-0.174,0.121-0.347,0.245-0.52,0.368c-0.502,0.356-1,0.719-1.489,1.094    c-0.25,0.192-0.497,0.392-0.744,0.589c-0.411,0.328-0.821,0.657-1.222,0.998c-0.331,0.282-0.653,0.575-0.978,0.866    c-0.317,0.285-0.638,0.565-0.948,0.859c-0.385,0.363-0.755,0.739-1.127,1.114c-0.243,0.244-0.492,0.483-0.73,0.733    c-0.535,0.562-1.053,1.137-1.56,1.72c-0.058,0.067-0.121,0.132-0.179,0.2c-7.033,8.205-11.155,18.45-11.759,29.22    c0,0.022-0.003,0.045-0.004,0.067c-0.044,0.813-0.063,1.628-0.067,2.445c0,0.096-0.006,0.191-0.006,0.286    c0,0.894,0.025,1.791,0.074,2.689c0.042,0.756-0.109,1.492-0.407,2.161c-0.029,0.065-0.052,0.134-0.083,0.197    c-0.049,0.098-0.109,0.189-0.165,0.282c-0.047,0.08-0.087,0.162-0.139,0.238c-0.337,0.501-0.774,0.939-1.293,1.284    c-0.004,0.003-0.008,0.006-0.012,0.008c-2.501,1.661-4.853,3.55-6.992,5.613c-0.507,0.489-1.103,0.827-1.734,1.043    c-8.569,7.775-13.36,17.42-13.36,34.369c0,22.188,22.862,49.289,49.545,49.289h48.617v229.902c0,2.588,2.098,4.686,4.686,4.686    c2.587,0,4.686-2.098,4.686-4.686V156.173c0-2.587-2.097-4.684-4.683-4.686c0.001,0,0.002,0,0.003,0    c2.587,0,4.686,2.098,4.686,4.686v23.469h94.333v9.371h-94.333V219h94.333v9.371h-94.333v29.987h94.333v9.371h-94.333v29.987    h94.333v9.37h-94.333v35.991h94.333v9.37h-94.333v29.987h94.333v9.371h-94.333v29.987h94.333v44.043    c0,2.588,2.098,4.686,4.686,4.686s4.686-2.098,4.686-4.686V156.173c0-2.587-2.096-4.684-4.684-4.686c0.002,0,0.002,0,0.004,0    c2.588,0,4.685,2.098,4.685,4.686v79.762h43.169c25.999,0,41.16-17.166,46.678-33.23    C414.955,182.437,408.612,160.896,391.834,147.827z"/></g></g><g id="Layer_1"/></svg>