<?xml version="1.0" ?><!DOCTYPE svg  PUBLIC '-//W3C//DTD SVG 1.1//EN'  'http://www.w3.org/Graphics/SVG/1.1/DTD/svg11.dtd'><svg height="6.82666in" style="shape-rendering:geometricPrecision; text-rendering:geometricPrecision; image-rendering:optimizeQuality; fill-rule:evenodd; clip-rule:evenodd" viewBox="0 0 6.82666 6.82666" width="6.82666in" xml:space="preserve" xmlns="http://www.w3.org/2000/svg" xmlns:xlink="http://www.w3.org/1999/xlink"><defs><style type="text/css">
   <![CDATA[
    .fil1 {fill:none}
    .fil0 {fill:black;fill-rule:nonzero}
   ]]>
  </style></defs><g id="Layer_x0020_1"><path class="fil0" d="M2.00814 5.77576l0 -2.60974 -0.188984 0.327327 0.000165354 9.44882e-005c-0.0220906,0.0382638 -0.0710197,0.051374 -0.109283,0.0292835 -0.00216929,-0.00125197 -0.00425197,-0.00259449 -0.00625591,-0.00401181l-0.857638 -0.495157 0.039689 -0.069063 -0.04 0.0692835c-0.0382638,-0.0220906 -0.051374,-0.0710197 -0.0292835,-0.109283 0.00125197,-0.00216929 0.00259843,-0.00425197 0.00401181,-0.00625591l0.795406 -1.37769 -0.000220472 -0.000311024c0.00994882,-0.0172323 0.0253386,-0.0293622 0.042748,-0.0354724l0.840189 -0.341331 -3.54331e-005 -8.66142e-005c0.0355827,-0.0144528 0.0754961,-0.00144882 0.0962441,0.0290827l0.770941 1.03307 0.773012 -1.03585 -5.11811e-005 -3.54331e-005c0.0230984,-0.0309528 0.0643189,-0.0404134 0.0979764,-0.0246496l0.839866 0.341205 0.000110236 -5.51181e-005c0.019622,0.0079685 0.0343583,0.0228465 0.042563,0.0406811l0.795508 1.37787 0.000299213 -0.000173228c0.0220906,0.0382638 0.00898031,0.0871929 -0.0292835,0.109283 -0.00216535,0.00125197 -0.00437008,0.00238189 -0.00659843,0.00340945l-0.85778 0.49524 0.000173228 0.000299213c-0.0382638,0.0220906 -0.0871929,0.00898031 -0.109283,-0.0292835 -0.000917323,-0.00159055 -0.00176772,-0.00320472 -0.00256693,-0.00482677l-0.186252 -0.322594 0 2.60974c0,0.0441811 -0.0358189,0.08 -0.08,0.08l-2.55539 0c-0.0441811,0 -0.08,-0.0358189 -0.08,-0.08z"/></g><rect class="fil1" height="6.82666" width="6.82666"/></svg>